<?xml version="1.0" standalone="no"?>
<!DOCTYPE svg PUBLIC "-//W3C//DTD SVG 20010904//EN"
 "http://www.w3.org/TR/2001/REC-SVG-20010904/DTD/svg10.dtd">
<svg version="1.0" xmlns="http://www.w3.org/2000/svg"
 width="239.000000pt" height="224.000000pt" viewBox="0 0 239.000000 224.000000"
 preserveAspectRatio="xMidYMid meet">

<g transform="translate(0.000000,224.000000) scale(0.100000,-0.100000)"
fill="#000000" stroke="none">
<path d="M907 2086 c-95 -26 -126 -98 -83 -193 14 -33 17 -54 12 -97 -8 -61
-24 -79 -107 -115 -39 -16 -50 -29 -92 -105 -45 -80 -86 -215 -87 -282 0 -12
-15 -47 -34 -78 -36 -60 -40 -81 -52 -276 l-6 -106 -39 -22 -39 -23 0 139 c0
166 0 167 -100 167 -117 0 -110 26 -110 -406 l0 -368 30 -16 c37 -19 113 -19
150 0 l30 16 0 169 0 169 77 55 c43 30 95 59 116 66 24 7 45 22 54 38 12 22
151 128 183 140 4 1 10 -19 14 -45 14 -105 76 -167 317 -316 120 -75 143 -87
151 -73 5 9 16 16 23 16 23 0 93 -68 135 -130 51 -76 101 -118 147 -125 51 -8
284 -66 303 -76 9 -4 21 -28 28 -53 16 -63 41 -74 101 -48 25 12 63 23 83 27
45 7 179 94 197 128 7 14 10 33 7 43 -5 17 -18 19 -134 19 -155 1 -152 -1
-401 169 -122 83 -172 123 -180 145 -7 16 -24 39 -37 52 -13 12 -35 47 -49 77
-14 30 -51 84 -84 121 -47 52 -75 74 -139 105 -87 43 -92 50 -92 140 0 36 4
44 30 59 l30 18 0 -79 c0 -94 7 -104 83 -110 93 -7 91 -11 95 263 3 173 1 240
-8 250 -32 39 -138 35 -160 -5 -5 -10 -10 -63 -10 -118 l0 -99 -39 -26 c-36
-24 -40 -25 -45 -9 -7 27 -15 80 -25 174 -11 99 -33 148 -85 196 -22 20 -36
42 -36 56 0 14 -3 31 -6 40 -5 12 0 16 17 16 35 0 46 11 54 50 4 19 12 38 17
41 5 4 5 32 -3 73 -6 37 -9 81 -5 97 5 28 3 32 -37 49 -61 27 -105 31 -160 16z
m135 -21 l45 -16 6 -92 c4 -55 2 -93 -3 -95 -6 -2 -10 -21 -10 -42 0 -37 -2
-39 -36 -46 l-36 -7 7 -51 c6 -42 14 -56 41 -79 51 -43 73 -94 84 -199 5 -51
16 -129 24 -173 8 -44 17 -105 21 -135 12 -110 9 -105 98 -148 67 -31 94 -51
140 -104 31 -36 68 -89 81 -119 13 -30 35 -65 49 -77 14 -13 31 -37 37 -52 8
-20 58 -61 163 -133 260 -178 264 -179 378 -185 54 -3 96 -9 93 -13 -8 -13
-66 -11 -178 6 -85 13 -113 22 -195 66 -125 67 -264 162 -298 205 -65 81 -96
114 -101 110 -3 -3 10 -23 29 -44 19 -22 46 -55 61 -74 32 -42 170 -137 301
-208 82 -44 112 -54 190 -66 111 -17 181 -18 209 -3 22 12 38 -1 38 -33 0 -21
-112 -95 -165 -109 -22 -6 -53 -15 -70 -21 -16 -6 -43 -11 -60 -12 -27 -1 -31
3 -45 47 -9 27 -22 52 -30 57 -19 10 -243 67 -294 74 -52 7 -79 27 -134 99
-108 141 -169 189 -195 153 -11 -15 -26 -8 -142 64 -224 140 -268 180 -299
274 -18 51 -16 81 10 151 14 38 14 46 -10 120 -14 43 -41 102 -62 131 -45 67
-42 101 17 168 22 25 36 46 31 46 -18 0 -81 -81 -87 -111 -4 -16 -24 -53 -46
-81 -25 -34 -39 -63 -39 -82 0 -16 -29 -92 -65 -168 -36 -76 -65 -140 -65
-142 0 -1 17 -8 38 -14 63 -19 74 -74 21 -103 -17 -9 -23 -7 -36 10 -9 13 -25
21 -44 21 l-29 0 0 98 c1 151 14 227 48 283 17 26 34 70 37 96 12 91 44 190
86 267 37 68 47 80 87 97 84 36 98 52 112 122 11 59 10 66 -9 98 -23 38 -27
95 -10 133 23 50 125 70 211 41z m367 -532 l24 -16 -23 -19 c-38 -31 -130 -19
-130 17 0 35 88 47 129 18z m-59 -67 c14 0 38 3 54 7 l28 8 -7 -213 c-4 -117
-10 -217 -14 -221 -13 -14 -75 -19 -103 -8 -28 10 -28 11 -28 106 0 52 -3 95
-6 95 -3 0 -21 -12 -40 -26 -38 -30 -39 -30 -47 6 -5 22 1 30 44 58 l49 32 0
86 c0 84 0 85 23 78 12 -5 33 -8 47 -8z m-575 -188 c29 -44 82 -176 73 -183
-2 -1 -61 -41 -132 -89 -114 -75 -166 -101 -166 -80 0 3 27 62 59 129 32 68
62 143 66 167 6 35 47 108 61 108 2 0 19 -24 39 -52z m-419 -209 c22 -18 17
-29 -23 -45 -57 -24 -143 -5 -143 31 0 32 131 43 166 14z m485 -35 c-14 -41
-27 -54 -110 -112 -59 -41 -96 -61 -99 -54 -2 7 -11 20 -20 28 -13 14 -14 17
-1 25 8 4 64 42 124 83 61 41 113 75 116 75 4 1 -1 -20 -10 -45z m-561 -34
c21 0 50 4 64 10 l26 10 0 -214 c0 -117 -3 -274 -7 -349 -6 -130 -7 -136 -30
-146 -31 -14 -71 -14 -112 0 l-31 11 0 349 0 349 26 -10 c14 -6 43 -10 64 -10z
m257 -200 c2 -9 -19 -30 -49 -50 -29 -19 -65 -43 -80 -53 l-28 -19 0 46 c0 42
3 48 38 71 43 28 115 31 119 5z m1767 -497 c11 -27 -8 -34 -21 -7 -9 19 -8 24
2 24 7 0 16 -8 19 -17z"/>
</g>
</svg>
